<svg width="25" height="24" viewBox="0 0 25 24" fill="none" xmlns="http://www.w3.org/2000/svg">
<path d="M8.29852 19.1938C8.29852 19.2915 8.18622 19.3696 8.04462 19.3696C7.88348 19.3842 7.77118 19.3061 7.77118 19.1938C7.77118 19.0962 7.88348 19.018 8.02509 19.018C8.17157 19.0034 8.29852 19.0815 8.29852 19.1938ZM6.77997 18.9741C6.74579 19.0717 6.84345 19.1841 6.98993 19.2133C7.11688 19.2622 7.26337 19.2133 7.29266 19.1157C7.32196 19.018 7.22919 18.9057 7.0827 18.8618C6.95575 18.8276 6.81415 18.8764 6.77997 18.9741ZM8.93817 18.8911C8.79657 18.9253 8.69891 19.018 8.71356 19.1303C8.72821 19.228 8.85516 19.2915 9.00165 19.2573C9.14325 19.2231 9.24091 19.1303 9.22626 19.0327C9.21161 18.9399 9.07977 18.8764 8.93817 18.8911ZM12.1511 0.180145C5.3786 0.180145 0.197937 5.32175 0.197937 12.0942C0.197937 17.5092 3.60614 22.143 8.4743 23.7739C9.0993 23.8862 9.31903 23.5005 9.31903 23.1831C9.31903 22.8803 9.30438 21.2104 9.30438 20.185C9.30438 20.185 5.88641 20.9174 5.16864 18.7299C5.16864 18.7299 4.612 17.3091 3.81122 16.9428C3.81122 16.9428 2.69305 16.1762 3.88934 16.1909C3.88934 16.1909 5.10516 16.2885 5.77411 17.4507C6.84344 19.3354 8.63544 18.7934 9.33368 18.4712C9.44598 17.6899 9.76337 17.1479 10.1149 16.8257C7.38544 16.5229 4.63153 16.1274 4.63153 11.4301C4.63153 10.0874 5.00262 9.41354 5.78387 8.55417C5.65692 8.23679 5.24188 6.92819 5.91083 5.23874C6.93134 4.92136 9.27997 6.5571 9.27997 6.5571C10.2565 6.28366 11.3063 6.14206 12.3464 6.14206C13.3864 6.14206 14.4362 6.28366 15.4128 6.5571C15.4128 6.5571 17.7614 4.91647 18.7819 5.23874C19.4509 6.93307 19.0358 8.23679 18.9089 8.55417C19.6901 9.41843 20.1686 10.0923 20.1686 11.4301C20.1686 16.1421 17.2927 16.518 14.5632 16.8257C15.0124 17.2114 15.3933 17.9438 15.3933 19.0913C15.3933 20.7368 15.3786 22.7729 15.3786 23.1733C15.3786 23.4907 15.6032 23.8764 16.2233 23.7641C21.1061 22.143 24.4167 17.5092 24.4167 12.0942C24.4167 5.32175 18.9235 0.180145 12.1511 0.180145ZM4.94403 17.021C4.88055 17.0698 4.8952 17.1821 4.97821 17.2749C5.05634 17.353 5.16864 17.3872 5.23212 17.3237C5.29559 17.2749 5.28094 17.1626 5.19794 17.0698C5.11981 16.9917 5.00751 16.9575 4.94403 17.021ZM4.41669 16.6255C4.38251 16.6889 4.43134 16.7671 4.52899 16.8159C4.60712 16.8647 4.70477 16.8501 4.73895 16.7817C4.77313 16.7182 4.7243 16.6401 4.62665 16.5913C4.52899 16.562 4.45087 16.5766 4.41669 16.6255ZM5.99872 18.3637C5.92059 18.4272 5.94989 18.5737 6.06219 18.6665C6.1745 18.7788 6.3161 18.7934 6.37958 18.7153C6.44305 18.6518 6.41376 18.5053 6.3161 18.4126C6.20868 18.3003 6.06219 18.2856 5.99872 18.3637ZM5.44208 17.646C5.36395 17.6948 5.36395 17.8217 5.44208 17.9341C5.5202 18.0464 5.65204 18.0952 5.71552 18.0464C5.79364 17.9829 5.79364 17.8559 5.71552 17.7436C5.64716 17.6313 5.5202 17.5825 5.44208 17.646Z" fill="black"/>
</svg>
