<svg width="23" height="23" viewBox="0 0 23 23" fill="none" xmlns="http://www.w3.org/2000/svg">
<path d="M21.8322 10.3154L12.2839 0.764619C12.0195 0.500529 11.6612 0.352184 11.2875 0.352184C10.9139 0.352184 10.5555 0.500529 10.2912 0.764619L8.30582 2.74851L10.8215 5.26413C12.1427 4.81784 13.3937 6.08298 12.9401 7.39694L15.3649 9.82175C17.0363 9.24558 18.3522 11.3354 17.0968 12.5898C15.8034 13.8833 13.6686 12.4497 14.3625 10.7666L12.0993 8.50632V14.456C13.3346 15.0683 13.1862 16.4995 12.5426 17.1416C12.2282 17.4558 11.8019 17.6323 11.3573 17.6323C10.9128 17.6323 10.4865 17.4558 10.172 17.1416C9.31413 16.2822 9.63151 14.851 10.7214 14.4072V8.40134C9.70573 7.98581 9.52018 6.90036 9.8112 6.20407L7.33122 3.72116L0.782388 10.271C0.518178 10.5352 0.369751 10.8936 0.369751 11.2673C0.369751 11.641 0.518178 11.9994 0.782388 12.2636L10.3337 21.8144C10.5979 22.0785 10.9562 22.2268 11.3298 22.2268C11.7033 22.2268 12.0616 22.0785 12.3258 21.8144L21.8322 12.3081C22.0964 12.0438 22.2448 11.6854 22.2448 11.3117C22.2448 10.938 22.0964 10.5797 21.8322 10.3154Z" fill="black"/>
</svg>
